<svg width="18" height="18" viewBox="0 0 19 19" fill="none" xmlns="http://www.w3.org/2000/svg">
<path d="M2.96875 10.3906C3.46063 10.3906 3.85938 9.99188 3.85938 9.5C3.85938 9.00812 3.46063 8.60938 2.96875 8.60938C2.47687 8.60938 2.07812 9.00812 2.07812 9.5C2.07812 9.99188 2.47687 10.3906 2.96875 10.3906Z" stroke="#8F8F8F" stroke-width="1.78125" stroke-linecap="round" stroke-linejoin="round"/>
<path d="M9.5 10.3906C9.99188 10.3906 10.3906 9.99188 10.3906 9.5C10.3906 9.00812 9.99188 8.60938 9.5 8.60938C9.00812 8.60938 8.60938 9.00812 8.60938 9.5C8.60938 9.99188 9.00812 10.3906 9.5 10.3906Z" stroke="#8F8F8F" stroke-width="1.78125" stroke-linecap="round" stroke-linejoin="round"/>
<path d="M16.0313 10.3906C16.5231 10.3906 16.9219 9.99188 16.9219 9.5C16.9219 9.00812 16.5231 8.60938 16.0313 8.60938C15.5394 8.60938 15.1406 9.00812 15.1406 9.5C15.1406 9.99188 15.5394 10.3906 16.0313 10.3906Z" stroke="#8F8F8F" stroke-width="1.78125" stroke-linecap="round" stroke-linejoin="round"/>
</svg>
